<svg width="35" height="35" viewBox="0 0 35 35" fill="none" xmlns="http://www.w3.org/2000/svg">
<path fill-rule="evenodd" clip-rule="evenodd" d="M-0.00104797 0.00107205H34.9981V35.0003H-0.00104797V0.00107205Z" fill="#D97AA5"/>
<path fill-rule="evenodd" clip-rule="evenodd" d="M17.5068 25.5064C13.3633 25.5064 10.0043 22.1473 10.0043 18.004C10.0043 13.8606 13.3633 10.5015 17.5068 10.5015C21.6502 10.5015 25.0092 13.8606 25.0092 18.004C25.0092 22.1473 21.6502 25.5064 17.5068 25.5064ZM19.2997 16.7445C19.4877 17.1248 19.6673 17.5033 19.8325 17.8748C20.8517 17.7066 21.9541 17.7016 23.1259 17.9329C23.1135 16.8396 22.7854 15.8243 22.2348 14.9651C21.3345 15.7141 20.3293 16.2946 19.2997 16.7445ZM21.3869 22.063C22.1358 21.3465 22.6822 20.4245 22.9474 19.3896C22.3403 19.2822 21.4664 19.2018 20.4368 19.3215C20.8587 20.401 21.1752 21.3613 21.3869 22.063ZM17.4989 23.6273C18.3844 23.6273 19.2189 23.4171 19.9642 23.0528C19.7718 21.8755 19.422 20.7154 18.993 19.6129C17.524 20.0372 15.8832 20.9227 14.3061 22.632C15.2136 23.2586 16.3127 23.6273 17.4989 23.6273ZM13.2002 21.6289C14.2 20.5827 16.0078 19.0071 18.4008 18.2253C18.2476 17.8968 18.089 17.5786 17.9282 17.2672C15.4988 18.0691 13.1365 18.2425 11.8811 18.2713C11.943 19.5483 12.4262 20.7136 13.2002 21.6289ZM11.9953 16.8149C14.1636 16.6516 15.8671 16.3309 17.1973 15.9399C16.4312 14.6281 15.678 13.5567 15.1668 12.877C13.5692 13.606 12.372 15.0577 11.9953 16.8149ZM17.4989 12.3668C17.1772 12.3668 16.8637 12.4001 16.5567 12.4519C17.337 13.3657 18.0186 14.3961 18.6132 15.4477C19.9765 14.8892 20.7848 14.2774 21.2496 13.808C20.2538 12.9148 18.9423 12.3668 17.4989 12.3668Z" fill="white"/>
</svg>
