<svg width="36" height="35" viewBox="0 0 36 35" fill="none" xmlns="http://www.w3.org/2000/svg">
<path fill-rule="evenodd" clip-rule="evenodd" d="M0.00194597 0.00107205H35.0011V35.0003H0.00194597V0.00107205Z" fill="#F8BC2E"/>
<path fill-rule="evenodd" clip-rule="evenodd" d="M9.50171 12.3587V9.46298C17.8076 9.46298 24.5392 16.1984 24.5392 24.5004H21.6413C21.6413 17.8063 16.1979 12.3587 9.50171 12.3587ZM9.50171 17.6233V14.7276C14.9014 14.7276 19.2741 19.1051 19.2741 24.5004H16.3766C16.3766 20.7082 13.2916 17.6233 9.50171 17.6233ZM9.50171 22.728C9.50171 21.7492 10.2952 20.9556 11.2741 20.9556C12.2529 20.9556 13.0465 21.7492 13.0465 22.728C13.0465 23.7068 12.2529 24.5004 11.2741 24.5004C10.2952 24.5004 9.50171 23.7068 9.50171 22.728Z" fill="white"/>
</svg>
