<svg width="35" height="35" viewBox="0 0 35 35" fill="none" xmlns="http://www.w3.org/2000/svg">
<path fill-rule="evenodd" clip-rule="evenodd" d="M-0.00104797 3.60012e-05H34.9981V34.9993H-0.00104797V3.60012e-05Z" fill="#00C6FF"/>
<path fill-rule="evenodd" clip-rule="evenodd" d="M16.4362 10.2665C15.7212 9.85743 14.8932 9.62361 14.0105 9.62361C11.3085 9.62361 9.11807 11.8141 9.11807 14.516C9.11807 15.6505 9.50431 16.695 10.1525 17.5248C10.1525 17.5248 10.1075 17.652 10.1075 17.7594C10.1075 21.9691 13.5203 25.3817 17.7301 25.3817C18.1014 25.3817 18.9519 25.2856 18.9519 25.2856L19.024 25.3254C19.024 25.3254 19.8891 25.9865 21.4498 25.968C24.1517 25.968 26.3421 23.7778 26.3421 21.0756C26.3421 19.9411 26.0474 18.8969 25.3993 18.0668L25.3501 17.9599C25.3518 17.8931 25.3527 17.8262 25.3527 17.7594C25.3527 13.5494 21.9399 10.1368 17.7301 10.1368C17.3054 10.1368 16.8886 10.1713 16.4827 10.2382L16.4362 10.2665ZM17.9374 12.5063C16.9754 12.5063 16.0021 12.7864 15.0909 13.3467C14.1797 13.9069 13.6509 14.7596 13.6509 15.6848C13.6509 16.7077 14.1617 17.4285 14.9632 17.8468C15.7649 18.2653 16.6468 18.5212 17.6086 18.6141C18.6776 18.7072 19.3626 19.0794 19.6272 19.4747C19.8916 19.8698 19.8916 20.265 19.6272 20.6603C19.3626 21.0556 18.7324 21.3447 17.6637 21.3447C16.3811 21.2516 15.4175 20.7061 14.8831 20.1484C14.8831 20.1484 14.3218 19.5476 13.6242 20.1607C12.7919 20.8456 13.4447 21.4699 13.4447 21.4699C13.9791 21.9351 14.4555 22.3802 15.2038 22.6593C15.9519 22.9382 16.8845 23.0776 18.0016 23.0776C19.1772 23.0776 20.2073 22.7754 21.0919 22.1709C21.9764 21.5666 22.4186 20.8458 22.4186 20.0089C22.4186 18.9395 22.0044 18.1607 21.176 17.6725C20.3476 17.1844 19.4257 16.8937 18.4104 16.8006C17.4484 16.6612 16.6505 16.397 16.3834 16.1179C16.116 15.839 16.0611 15.2272 16.3283 14.8319C16.5955 14.4369 17.3018 14.1292 18.447 14.2574C19.3173 14.4406 19.8823 14.8662 20.5267 15.3326C20.5267 15.3326 21.2301 15.6042 21.6664 15.0627C22.1845 14.3503 21.6537 13.8093 21.6537 13.8093C21.6537 13.8093 21.1493 13.1975 20.5348 12.9649C19.9201 12.7323 19.0543 12.5063 17.9374 12.5063Z" fill="white"/>
</svg>
