<svg width="35" height="35" viewBox="0 0 35 35" fill="none" xmlns="http://www.w3.org/2000/svg">
<path fill-rule="evenodd" clip-rule="evenodd" d="M-5.99623e-05 0.00107205H34.9991V35.0003H-5.99623e-05V0.00107205Z" fill="#45B0E3"/>
<path fill-rule="evenodd" clip-rule="evenodd" d="M6.98473 20.7096C6.98473 20.7096 11.0058 24.2061 14.2034 20.7402C14.2034 20.7402 13.6686 20.7392 13.3256 20.4756C13.0126 20.2348 12.8888 19.7293 12.8888 19.7293C12.8888 19.7293 13.8834 19.1731 13.5102 18.753C13.5102 18.753 11.31 18.7092 11.1869 17.3809L12.4793 16.5465C12.4793 16.5465 11.9716 16.7926 11.469 16.5427C11.469 16.5427 10.1648 15.607 10.4136 14.6492L11.5033 14.5378C11.5033 14.5378 9.61278 13.1944 10.1408 12.162C10.1408 12.162 10.3227 11.2738 16.5766 15.4262C16.5766 15.4262 17.6791 11.5024 19.7156 10.6395C19.7156 10.6395 20.0541 10.8019 20.0541 10.9747C20.0541 10.9747 20.3431 10.3536 20.7238 10.296C20.7238 10.296 21.1842 10.7013 20.8849 10.9321C20.8849 10.9321 21.6596 10.4022 22.0379 10.671C22.0379 10.671 22.007 11.1427 20.8932 11.7292C20.8932 11.7292 23.7837 11.8894 24.7926 15.7439C24.7926 15.7439 26.0464 16.1943 27.2228 15.4377C27.2228 15.4377 27.3207 16.0073 25.4935 16.8126C25.4935 16.8126 25.6635 17.087 27.195 16.8782C27.195 16.8782 27.1832 18.0177 24.76 18.0087C24.76 18.0087 22.7139 23.937 17.7407 24.7531C11.6966 25.745 7.4511 22.7231 6.98473 20.7096Z" fill="white"/>
</svg>
