<svg width="35" height="35" viewBox="0 0 35 35" fill="none" xmlns="http://www.w3.org/2000/svg">
<path fill-rule="evenodd" clip-rule="evenodd" d="M-9.799e-05 3.60012e-05H34.9991V34.9993H-9.799e-05V3.60012e-05Z" fill="#E70031"/>
<path fill-rule="evenodd" clip-rule="evenodd" d="M12.7804 10.0432C12.5366 11.4408 12.3628 12.4587 12.259 13.2533C12.2247 12.7503 12.0732 11.4971 11.8043 10.0432H10.0847L11.4008 14.8349V17.5311H13.1731V14.8349L14.5003 10.0039L12.7804 10.0432ZM12.0352 18.8331H22.9636C24.6401 18.8331 25.9992 20.2395 25.9992 21.9738V23.8584C25.9992 25.593 24.6401 26.9992 22.9636 26.9992H12.0352C10.3588 26.9992 8.99957 25.593 8.99957 23.8584V21.9738C8.99957 20.2395 10.3588 18.8331 12.0352 18.8331ZM18.2704 11.9871C18.4277 12.1866 18.5351 12.3921 18.5929 12.6036C18.6507 12.8154 18.6796 13.1374 18.6796 13.57V15.0652C18.6796 15.6142 18.653 16.0168 18.5996 16.2729C18.5462 16.529 18.4321 16.7683 18.2572 16.9906C18.0823 17.2129 17.8577 17.3771 17.5834 17.4828C17.3092 17.5887 17.1461 17.6415 16.7903 17.6415C16.393 17.6415 15.8289 17.5962 15.5532 17.5058C15.2775 17.4154 15.0634 17.279 14.9106 17.0962C14.758 16.914 14.649 16.6932 14.5838 16.4338C14.5186 16.1747 14.486 15.786 14.486 15.2675V13.7031C14.486 13.1359 14.5453 12.6928 14.6639 12.3736C14.7824 12.0546 14.9959 11.7985 15.3042 11.6053C15.6125 11.412 16.2344 11.3154 16.7148 11.3154C17.1178 11.3154 17.3123 11.3775 17.6012 11.5019C17.8903 11.6261 18.1134 11.7878 18.2704 11.9871ZM16.832 16.2053C16.8661 16.1254 16.8831 15.9537 16.8831 15.6898V13.1882C16.8831 12.8755 16.8668 12.6782 16.8342 12.5971C16.8015 12.5158 16.6561 12.4752 16.5493 12.4752C16.4425 12.4752 16.3715 12.5158 16.3359 12.5971C16.3003 12.6782 16.2825 12.8755 16.2825 13.1882V15.63C16.2825 15.9184 16.3003 16.1064 16.3359 16.1938C16.3715 16.2811 16.4411 16.3247 16.5449 16.3247C16.6516 16.3247 16.7979 16.2849 16.832 16.2053ZM21.7395 15.5344V11.3081H23.5361V17.5311H21.7084L21.7395 17.0239C21.6151 17.2299 21.4616 17.3841 21.2793 17.4873C21.1293 17.572 20.9606 17.5684 20.7734 17.5646C20.7332 17.5637 20.6921 17.5629 20.6502 17.5629C20.5995 17.5629 20.5478 17.5639 20.496 17.5649C20.2721 17.5695 20.0472 17.574 19.9027 17.4943C19.7249 17.3961 19.5937 17.2657 19.5093 17.1032C19.4248 16.9408 19.372 16.7713 19.3513 16.5951C19.3305 16.4186 19.3202 16.0681 19.3202 15.5436V11.3081H21.1167V15.5804C21.1167 16.0558 21.1308 16.3379 21.1589 16.4268C21.1872 16.5159 21.3394 16.5605 21.4639 16.5605C21.5972 16.5605 21.6766 16.5144 21.7018 16.4223C21.7269 16.3304 21.7395 16.0343 21.7395 15.5344ZM10.8222 20.0926V21.3034H11.4445V25.7119H12.6655V21.3034H13.2151V20.0926H10.8222ZM15.6434 21.3525V24.2477C15.6434 24.6144 15.634 24.8315 15.6156 24.8991C15.5972 24.9664 15.4631 25.0002 15.3654 25.0002C15.274 25.0002 15.1042 24.9677 15.0835 24.9023C15.0628 24.837 15.0526 24.6302 15.0526 24.2815V21.3135H13.849V24.2544C13.849 24.639 13.8565 24.8961 13.8718 25.0255C13.887 25.1549 13.9256 25.2791 13.9876 25.3982C14.0496 25.5177 14.1457 25.613 14.2762 25.6851C14.4065 25.757 14.5707 25.793 14.7686 25.793C14.9424 25.793 15.0963 25.7552 15.2299 25.6796C15.3636 25.6043 15.4762 25.4911 15.5674 25.3399L15.5446 25.7119H16.8848V21.3525H15.6434ZM17.5095 20.0926V25.7119H18.6283L18.713 25.3737C18.8239 25.5137 19.098 25.6183 19.2317 25.6881C19.3655 25.758 19.5094 25.793 19.6639 25.793C19.879 25.793 20.065 25.7339 20.2215 25.6158C20.378 25.4976 20.4774 25.3584 20.5199 25.1975C20.5622 25.0368 20.5834 24.7922 20.5834 24.4637V22.289C20.5834 21.9583 20.5763 22.0565 20.5622 21.9553C20.548 21.8542 20.5062 21.7506 20.4367 21.6449C20.3671 21.5393 20.266 21.4572 20.1335 21.3986C20.0008 21.3402 19.8442 21.311 19.6639 21.311C19.5074 21.311 19.3622 21.343 19.2285 21.4073C19.0948 21.4714 18.8218 21.569 18.713 21.6997V20.0926H17.5095ZM19.266 24.3929C19.266 24.6582 19.2535 24.826 19.2285 24.8956C19.2035 24.9652 18.9979 25.0002 18.9152 25.0002C18.8348 25.0002 18.781 24.9664 18.7539 24.8991C18.7267 24.8315 18.713 24.6775 18.713 24.4367V22.3499C18.713 22.1 18.725 22.2585 18.749 22.1967C18.7729 22.1346 18.825 22.1038 18.9056 22.1038C18.9881 22.1038 19.1954 22.1393 19.2236 22.2099C19.2518 22.281 19.266 22.1181 19.266 22.3499V24.3929ZM24.0768 22.9589C24.0768 22.5248 24.0283 22.3451 23.9316 22.1055C23.8348 21.866 23.6664 21.6734 23.4262 21.5285C23.186 21.3835 22.8811 21.311 22.5115 21.311C22.2093 21.311 22.0178 21.371 21.7852 21.4915C21.5526 21.6119 21.3472 21.7848 21.245 22.0109C21.1428 22.237 21.0918 22.2317 21.0918 22.623V24.086C21.0918 24.4187 21.1146 24.6723 21.1603 24.8465C21.2059 25.021 21.288 25.1807 21.4065 25.3257C21.525 25.4708 21.7287 25.585 21.9418 25.6681C22.1548 25.7512 22.3245 25.793 22.6028 25.793C22.8898 25.793 23.1284 25.7507 23.3186 25.6666C23.5088 25.5822 23.6658 25.4556 23.7898 25.2868C23.9137 25.1181 23.9926 24.9597 24.0263 24.8112C24.0599 24.6627 24.0768 24.4502 24.0768 24.1736V23.8429H22.8279V24.4334C22.8279 24.656 22.811 24.8062 22.7773 24.8838C22.7436 24.9614 22.6767 25.0002 22.5768 25.0002C22.4963 25.0002 22.4419 24.9709 22.4137 24.9123C22.3854 24.854 22.3713 24.7236 22.3713 24.5211V23.2386H24.0768V22.9589ZM22.3713 22.6668V22.3396C22.3713 22.0877 22.3821 22.2472 22.4039 22.1899C22.4256 22.1326 22.4822 22.1038 22.5735 22.1038C22.6473 22.1038 22.6963 22.1376 22.7202 22.2049C22.7441 22.2725 22.756 22.108 22.756 22.3396V22.6668H22.3713Z" fill="white"/>
</svg>
